<?xml version="1.0" encoding="utf-8"?>
<svg version="1.1" xmlns:xlink="http://www.w3.org/1999/xlink" width="287px" height="278px" xmlns="http://www.w3.org/2000/svg">
  <defs>
    <linearGradient gradientUnits="userSpaceOnUse" x1="143.5" y1="0" x2="266.859713492721" y2="286.330152980606" id="LinearGradient16">
      <stop id="Stop17" stop-color="#ffffff" offset="0" />
      <stop id="Stop18" stop-color="#fbdba9" offset="0.45" />
      <stop id="Stop19" stop-color="#f7a11f" offset="1" />
    </linearGradient>
  </defs>
  <g transform="matrix(1 0 0 1 -85 -205 )">
    <path d="M 270.889467592593 73.826061663758  C 281.629822530864 93.8256738413806  287 115.307737056428  287 138.272251308901  C 287 157.247624587939  283.207658179012 175.360480899748  275.622974537037 192.610820244328  C 268.038290895062 209.861159588908  257.8515625 224.712623618383  245.062789351852 237.165212332752  C 232.274016203704 249.61780104712  217.021604938272 259.536746170254  199.305555555556 266.922047702152  C 181.58950617284 274.307349234051  162.987654320988 278  143.5 278  C 124.012345679012 278  105.41049382716 274.307349234051  87.6944444444445 266.922047702152  C 69.9783950617284 259.536746170254  54.7259837962963 249.61780104712  41.9372106481481 237.165212332752  C 29.1484375 224.712623618383  18.9617091049383 209.861159588908  11.377025462963 192.610820244328  C 3.79234182098765 175.360480899748  0 157.247624587939  0 138.272251308901  C 0 115.307737056428  5.3701774691358 93.8256738413806  16.1105324074074 73.826061663758  C 26.850887345679 53.8264494861353  41.5219907407407 37.3577661431065  60.1238425925926 24.4200116346713  C 78.7256944444445 11.4822571262362  99.4313271604938 3.3422532480124  123 0  L 123 36.8726003490401  C 97.7704475308642 41.7242582897033  77.4800347222222 53.637773899554  61.3695023148148 72.6131471785922  C 45.2589699074074 91.5885204576304  37.2037037037037 113.474888501067  37.2037037037037 138.272251308901  C 37.2037037037037 152.288152026372  40.0271990740741 165.684118673647  45.6741898148148 178.460151250727  C 51.3211805555556 191.236183827807  58.8781828703704 202.233275159977  68.3451967592593 211.451425247237  C 77.8122106481481 220.669575334497  89.1061921296296 228.027923211169  102.227141203704 233.526468877254  C 115.348090277778 239.025014543339  129.105709876543 241.774287376382  143.5 241.774287376382  C 157.894290123457 241.774287376382  171.651909722222 239.025014543339  184.772858796296 233.526468877254  C 197.89380787037 228.027923211169  209.187789351852 220.669575334497  218.654803240741 211.451425247237  C 228.12181712963 202.233275159977  235.678819444444 191.236183827807  241.325810185185 178.460151250727  C 246.972800925926 165.684118673647  249.796296296296 152.288152026372  249.796296296296 138.272251308901  C 249.796296296296 113.474888501067  241.741030092593 91.5885204576304  225.630497685185 72.6131471785922  C 209.519965277778 53.637773899554  189.229552469136 41.7242582897033  164 36.8726003490401  L 164 0  C 187.568672839506 3.3422532480124  208.274305555556 11.4822571262362  226.876157407407 24.4200116346713  C 245.478009259259 37.3577661431065  260.149112654321 53.8264494861353  270.889467592593 73.826061663758  Z " fill-rule="nonzero" fill="url(#LinearGradient16)" stroke="none" transform="matrix(1 0 0 1 85 205 )" />
  </g>
</svg>