<?xml version="1.0" encoding="utf-8"?>
<svg version="1.1" xmlns:xlink="http://www.w3.org/1999/xlink" width="44px" height="44px" xmlns="http://www.w3.org/2000/svg">
  <g transform="matrix(1 0 0 1 -1230 -587 )">
    <path d="M 1252 588  C 1263.76 588  1273 597.24  1273 609  C 1273 620.76  1263.76 630  1252 630  C 1240.24 630  1231 620.76  1231 609  C 1231 597.24  1240.24 588  1252 588  Z " fill-rule="nonzero" fill="#ffffff" stroke="none" />
    <path d="M 1252 588  C 1263.76 588  1273 597.24  1273 609  C 1273 620.76  1263.76 630  1252 630  C 1240.24 630  1231 620.76  1231 609  C 1231 597.24  1240.24 588  1252 588  Z " stroke-width="2" stroke="#797979" fill="none" />
  </g>
</svg>