<?xml version="1.0" encoding="utf-8"?>
<svg version="1.1" xmlns:xlink="http://www.w3.org/1999/xlink" width="261px" height="253px" xmlns="http://www.w3.org/2000/svg">
  <defs>
    <linearGradient gradientUnits="userSpaceOnUse" x1="130.5" y1="0" x2="242.684269064809" y2="260.581038503933" id="LinearGradient20">
      <stop id="Stop21" stop-color="#ffffff" offset="0" />
      <stop id="Stop22" stop-color="#fbdba9" offset="0.45" />
      <stop id="Stop23" stop-color="#f7a11f" offset="1" />
    </linearGradient>
  </defs>
  <g transform="matrix(1 0 0 1 -620 -156 )">
    <path d="M 246.348958333333 67.1870273414776  C 256.116319444444 85.3881132441342  261 104.938336242001  261 125.837696335079  C 261 143.106651153772  257.551215277778 159.590653480706  250.653645833333 175.289703315881  C 243.756076388889 190.988753151057  234.4921875 204.504653868528  222.861979166667 215.837405468296  C 211.231770833333 227.170157068063  197.361111111111 236.197110723289  181.25 242.918266433973  C 165.138888888889 249.639422144658  148.222222222222 253  130.5 253  C 112.777777777778 253  95.8611111111111 249.639422144658  79.75 242.918266433973  C 63.6388888888889 236.197110723289  49.7682291666667 227.170157068063  38.1380208333333 215.837405468296  C 26.5078125 204.504653868528  17.2439236111111 190.988753151057  10.3463541666667 175.289703315881  C 3.44878472222222 159.590653480706  0 143.106651153772  0 125.837696335079  C 0 104.938336242001  4.88368055555556 85.3881132441342  14.6510416666667 67.1870273414776  C 24.4184027777778 48.985941438821  37.7604166666667 33.9982547993019  54.6770833333333 22.2239674229203  C 71.59375 10.4496800465387  90.4236111111111 3.04169090556524  112 0  L 112 33.5567190226876  C 88.9131944444445 37.9720767888307  70.4609375 48.8142330812488  55.8098958333333 66.0831878999418  C 41.1588541666667 83.3521427186349  33.8333333333333 103.270312197014  33.8333333333333 125.837696335079  C 33.8333333333333 138.593174326159  36.4010416666667 150.784467713787  41.5364583333333 162.411576497964  C 46.671875 174.038685282141  53.5442708333333 184.046829552065  62.1536458333333 192.436009307737  C 70.7630208333333 200.825189063409  81.0338541666667 207.521815008726  92.9661458333333 212.525887143688  C 104.8984375 217.52995927865  117.409722222222 220.031995346131  130.5 220.031995346131  C 143.590277777778 220.031995346131  156.1015625 217.52995927865  168.033854166667 212.525887143688  C 179.966145833333 207.521815008726  190.236979166667 200.825189063409  198.846354166667 192.436009307737  C 207.455729166667 184.046829552065  214.328125 174.038685282141  219.463541666667 162.411576497964  C 224.598958333333 150.784467713787  227.166666666667 138.593174326159  227.166666666667 125.837696335079  C 227.166666666667 103.270312197014  219.841145833333 83.3521427186349  205.190104166667 66.0831878999418  C 190.5390625 48.8142330812488  172.086805555556 37.9720767888307  149 33.5567190226876  L 149 0  C 170.576388888889 3.04169090556524  189.40625 10.4496800465387  206.322916666667 22.2239674229203  C 223.239583333333 33.9982547993019  236.581597222222 48.985941438821  246.348958333333 67.1870273414776  Z " fill-rule="nonzero" fill="url(#LinearGradient20)" stroke="none" transform="matrix(1 0 0 1 620 156 )" />
  </g>
</svg>