<?xml version="1.0" standalone="no"?><!DOCTYPE svg PUBLIC "-//W3C//DTD SVG 1.1//EN" "http://www.w3.org/Graphics/SVG/1.1/DTD/svg11.dtd"><svg t="1605340046704" class="icon" viewBox="0 0 1024 1024" version="1.1" xmlns="http://www.w3.org/2000/svg" p-id="5266" xmlns:xlink="http://www.w3.org/1999/xlink" width="200" height="200"><defs><style type="text/css"></style></defs><path d="M512 1021.724C230.514 1021.724 2.276 793.486 2.276 512S230.514 2.276 512 2.276 1021.724 230.514 1021.724 512 793.486 1021.724 512 1021.724z m0-67.925c243.94 0 441.8-197.746 441.8-441.799S755.94 70.2 512 70.2 70.2 268.06 70.2 512 268.06 953.8 512 953.8z" p-id="5267" fill="#F7A11F"></path><path d="M525.198 262.827c46.422 0 84.082 12.288 113.095 38.457 29.014 25.372 43.463 60.188 43.463 103.651 0 35.499-9.443 65.195-27.534 88.405-6.485 7.965-26.851 26.852-60.87 56.548-13.768 11.605-23.894 24.69-30.493 37.66-7.965 14.45-11.606 30.493-11.606 47.9v12.289h-77.596v-12.288c0-26.852 4.323-50.062 14.45-68.836 9.443-20.252 36.977-50.062 81.92-89.884l12.288-13.767c13.084-16.726 20.252-34.02 20.252-52.907 0-25.372-7.282-44.942-21.049-59.392-14.45-14.45-35.498-21.731-61.667-21.731-32.655 0-56.548 10.126-70.998 31.175-13.084 17.408-19.57 42.097-19.57 73.955h-76.117c0-52.906 15.246-94.208 45.625-124.7 30.72-31.29 72.818-46.535 126.407-46.535z m-12.97 424.05c15.246 0 28.216 4.323 38.456 14.45 10.127 9.443 15.247 21.73 15.247 36.977 0 15.246-5.803 27.534-15.93 37.66-10.125 9.444-23.21 14.45-37.66 14.45-14.45 0-27.534-5.12-37.66-15.246-10.126-10.126-15.246-22.528-15.246-36.978 0-15.246 5.12-27.534 15.246-36.978 9.899-10.012 22.983-14.336 37.547-14.336z" p-id="5268" fill="#F7A11F"></path></svg>