<?xml version="1.0" standalone="no"?><!DOCTYPE svg PUBLIC "-//W3C//DTD SVG 1.1//EN" "http://www.w3.org/Graphics/SVG/1.1/DTD/svg11.dtd"><svg t="1605339966994" class="icon" viewBox="0 0 1024 1024" version="1.1" xmlns="http://www.w3.org/2000/svg" p-id="4406" xmlns:xlink="http://www.w3.org/1999/xlink" width="200" height="200"><defs><style type="text/css"></style></defs><path d="M840.757895 53.894737c-5.389474 0-16.168421-5.389474-21.557895-10.778948-21.557895-5.389474-43.115789-10.778947-70.063158-16.168421-156.294737-37.726316-328.757895-37.726316-479.663158 0-26.947368 5.389474-48.505263 10.778947-70.063158 16.168421-5.389474 5.389474-16.168421 10.778947-21.557894 10.778948C123.957895 70.063158 86.231579 129.347368 86.231579 183.242105V646.736842c0 53.894737 32.336842 113.178947 70.063158 145.51579l274.863158 204.8c21.557895 16.168421 48.505263 26.947368 80.842105 26.947368 26.947368 0 53.894737-10.778947 80.842105-26.947368l274.863158-204.8c37.726316-32.336842 70.063158-91.621053 70.063158-145.51579V183.242105c-5.389474-53.894737-43.115789-113.178947-97.010526-129.347368z m10.778947 592.842105c0 26.947368-16.168421 64.673684-37.726316 80.842105l-274.863158 204.8c-16.168421 10.778947-43.115789 10.778947-59.28421 0l-274.863158-204.8c-21.557895-16.168421-37.726316-53.894737-37.726316-80.842105V183.242105c0-21.557895 16.168421-48.505263 37.726316-53.894737 5.389474 0 10.778947-5.389474 21.557895-5.389473 16.168421-5.389474 37.726316-10.778947 59.28421-16.168421 75.452632-16.168421 145.515789-26.947368 226.357895-26.947369 75.452632 0 150.905263 10.778947 220.968421 26.947369 21.557895 5.389474 43.115789 10.778947 59.284211 16.168421 10.778947 0 16.168421 5.389474 21.557894 5.389473 21.557895 5.389474 37.726316 32.336842 37.726316 53.894737V646.736842z" p-id="4407" fill="#F7A11F"></path><path d="M700.631579 291.031579c-10.778947 0-21.557895 5.389474-32.336842 10.778947L447.326316 528.168421 350.315789 431.157895c-16.168421-16.168421-48.505263-16.168421-64.673684 0-16.168421 16.168421-16.168421 43.115789 0 59.28421l129.347369 129.347369c10.778947 10.778947 21.557895 10.778947 32.336842 10.778947 10.778947 0 21.557895-5.389474 32.336842-10.778947l253.305263-253.305263c10.778947-10.778947 10.778947-21.557895 10.778947-32.336843 0-10.778947-5.389474-21.557895-10.778947-32.336842-10.778947-10.778947-21.557895-10.778947-32.336842-10.778947z" p-id="4408" fill="#F7A11F"></path></svg>