<?xml version="1.0" standalone="no"?><!DOCTYPE svg PUBLIC "-//W3C//DTD SVG 1.1//EN" "http://www.w3.org/Graphics/SVG/1.1/DTD/svg11.dtd"><svg t="1605374985990" class="icon" viewBox="0 0 1109 1024" version="1.1" xmlns="http://www.w3.org/2000/svg" p-id="7037" xmlns:xlink="http://www.w3.org/1999/xlink" width="216.6015625" height="200"><defs><style type="text/css"></style></defs><path d="M772.233319 393.140031h-2.532303c-19.150541 0-34.977434 5.539413-50.171252 14.87728-13.29459-38.775889-47.005873-66.631221-90.52983-66.631221-19.150541 0-37.509737 5.539413-52.703555 14.877279-13.29459-38.775889-47.005873-66.631221-90.52983-66.631221-16.934776 0-32.761669 4.273261-46.689335 11.711901v-99.709428c0-54.286244-40.991654-98.285008-95.752705-98.285007-54.602782 0-98.918083 43.998764-98.918084 98.285007v381.42813l-60.142194-59.825657c-38.61762-38.301082-106.989799-32.919938-139.909738 0-32.919938 32.919938-54.444513 99.076352-7.438639 146.240495l276.337558 274.5966c5.697682 5.697682 12.028439 10.44575 18.517465 14.402473 50.329521 41.149923 108.097682 65.523338 230.281298 65.523338 279.02813 0 304.825966-150.513756 304.825966-336.163215V491.425039c0-54.286244-40.04204-98.285008-94.644822-98.285008z m42.574343 294.855023c0 157.161051-0.791345 284.409274-252.755487 284.409274-106.673261 0-170.772179-23.74034-219.360742-72.012365L81.072886 640.356105c-23.107264-23.107264-17.251314-52.703555 1.582689-71.695827 18.992272-18.992272 53.653168-19.625348 72.012365-1.42442 0 0 45.897991 45.581453 85.465224 84.990417 29.912828 29.75456 56.185471 55.868934 56.185472 55.868934V212.23864c0-25.639567 21.049768-46.531066 46.847604-46.531067 25.956105 0 43.682226 20.891499 43.682226 46.531067v315.429984h0.474806c-0.316538 1.740958-0.474807 3.323648-0.474806 5.222875 0 14.244204 11.711901 25.797836 26.114374 25.797836s26.114374-11.553632 26.114374-25.797836c0-1.740958-0.158269-3.481917-0.474807-5.222875h0.474807v-129.305718c0-25.639567 18.675734-46.531066 44.631839-46.531067 0 0 45.897991-0.633076 45.897991 46.531067v170.61391h0.474807c-0.316538 1.740958-0.474807 3.323648-0.474807 5.222875 0 14.244204 11.711901 25.797836 26.114374 25.797836s26.114374-11.553632 26.114374-25.797836c0-1.740958-0.158269-3.481917-0.474807-5.222875h0.474807v-119.018238c0-25.639567 18.359196-46.531066 44.315301-46.531066 0 0 46.847604 2.848841 46.847605 46.531066v150.038949h0.474806c-0.316538 1.740958-0.474807 3.323648-0.474806 5.222875 0 14.244204 11.711901 25.797836 26.114374 25.797836s25.323029-11.553632 25.323029-25.797836c0-1.740958-0.158269-3.481917-0.474807-5.222875h0.474807v-102.4c0-25.639567 19.30881-46.531066 45.264915-46.531066 0 0 45.423184-1.899227 45.423184 46.531066v190.397527zM205.630537 348.349923V261.460278c-8.229985-18.517465-12.978053-39.092427-12.978053-60.617001 0-82.299845 66.78949-149.089335 149.089336-149.089336S490.831155 118.543431 490.831155 200.843277c0 11.237094-1.266151 22.157651-3.640185 32.761669 18.834003 0.791345 35.61051 8.546522 47.955486 21.049768 4.748068-17.093045 7.596909-34.977434 7.596909-53.653168 0-110.946522-90.055023-201.001546-201.001545-201.001546s-201.001546 89.896754-201.001546 201.001546c0 58.242968 25.16476 110.629985 64.890263 147.348377z m0 0" p-id="7038"></path></svg>