<?xml version="1.0" encoding="utf-8"?>
<svg version="1.1" xmlns:xlink="http://www.w3.org/1999/xlink" width="22px" height="12px" xmlns="http://www.w3.org/2000/svg">
  <g transform="matrix(1 0 0 1 -352 -42 )">
    <path d="M 2.44444444444444 2.4  L 18.3333333333333 2.4  L 18.3333333333333 9.6  L 2.44444444444444 9.6  L 2.44444444444444 2.4  Z M 19.5555555555556 10.5  L 19.5555555555556 7.8  L 20.7777777777778 7.8  L 20.7777777777778 4.2  L 19.5555555555556 4.2  L 19.5555555555556 1.5  C 19.5555555555556 1.4125  19.5269097222222 1.340625  19.4696180555556 1.284375  C 19.4123263888889 1.228125  19.3391203703704 1.2  19.25 1.2  L 1.52777777777778 1.2  C 1.43865740740741 1.2  1.36545138888889 1.228125  1.30815972222222 1.284375  C 1.25086805555556 1.340625  1.22222222222222 1.4125  1.22222222222222 1.5  L 1.22222222222222 10.5  C 1.22222222222222 10.5875  1.25086805555556 10.659375  1.30815972222222 10.715625  C 1.36545138888889 10.771875  1.43865740740741 10.8  1.52777777777778 10.8  L 19.25 10.8  C 19.3391203703704 10.8  19.4123263888889 10.771875  19.4696180555556 10.715625  C 19.5269097222222 10.659375  19.5555555555556 10.5875  19.5555555555556 10.5  Z M 21.6419270833333 3.3515625  C 21.8806423611111 3.5859375  22 3.86875  22 4.2  L 22 7.8  C 22 8.13125  21.8806423611111 8.4140625  21.6419270833333 8.6484375  C 21.4032118055556 8.8828125  21.115162037037 9  20.7777777777778 9  L 20.7777777777778 10.5  C 20.7777777777778 10.9125  20.6281828703704 11.265625  20.3289930555556 11.559375  C 20.0298032407407 11.853125  19.6701388888889 12  19.25 12  L 1.52777777777778 12  C 1.10763888888889 12  0.747974537037037 11.853125  0.448784722222222 11.559375  C 0.149594907407407 11.265625  0 10.9125  0 10.5  L 0 1.5  C 0 1.0875  0.149594907407407 0.734375  0.448784722222222 0.440625  C 0.747974537037037 0.146874999999998  1.10763888888889 0  1.52777777777778 0  L 19.25 0  C 19.6701388888889 0  20.0298032407407 0.146874999999998  20.3289930555556 0.440625  C 20.6281828703704 0.734375  20.7777777777778 1.0875  20.7777777777778 1.5  L 20.7777777777778 3  C 21.115162037037 3  21.4032118055556 3.1171875  21.6419270833333 3.3515625  Z " fill-rule="nonzero" fill="#ffffff" stroke="none" transform="matrix(1 0 0 1 352 42 )" />
  </g>
</svg>