<?xml version="1.0" standalone="no"?><!DOCTYPE svg PUBLIC "-//W3C//DTD SVG 1.1//EN" "http://www.w3.org/Graphics/SVG/1.1/DTD/svg11.dtd"><svg t="1604753724614" class="icon" viewBox="0 0 1024 1024" version="1.1" xmlns="http://www.w3.org/2000/svg" p-id="17294" xmlns:xlink="http://www.w3.org/1999/xlink" width="200" height="200"><defs><style type="text/css"></style></defs><path d="M922.970269 201.501295c8.908216 8.090864 20.067465 12.078642 31.190999 12.078642 12.705177 0 25.363414-5.192888 34.557346-15.419478 17.226632-19.19399 15.738868-48.795184-3.340836-66.136102l-60.101373-54.613586-0.012245 0 0 0L864.833193 22.503306c-19.068479-17.329694-48.510489-15.840909-65.748345 3.340836-17.227652 19.19297-15.738868 48.795184 3.338795 66.123857l25.569538 23.237891-46.976806 51.817651c-53.476844-39.884928-115.612923-68.725914-182.999033-83.248448-1.703071-14.590902-6.589835-31.613451-18.431741-46.999255-12.203133-15.863358-36.010415-35.135921-80.054552-36.737971-0.624493-0.034694-1.251028-0.045919-1.875521-0.034694-40.795137 0.385717-64.317724 17.829696-76.874941 32.398149-14.237839 16.510301-20.102159 35.693067-22.328702 51.282954C184.342465 129.638628 23.275193 320.573422 23.275193 548.526801c0 262.178069 212.974719 475.471158 474.767072 475.471158 261.769904 0 474.743603-213.293089 474.743603-475.471158 0-122.477249-46.521702-234.293212-122.746639-318.673299l47.032929-51.874794L922.970269 201.501295zM498.042265 930.362716c-210.451235 0-381.67775-171.293863-381.67775-381.835915 0-210.544093 171.225495-381.830813 381.67775-381.830813 210.440011 0 381.655301 171.28672 381.655301 381.830813C879.697566 759.068853 708.483296 930.362716 498.042265 930.362716zM579.474376 548.526801c0 44.430873-36.681848 80.453533-80.86374 80.453533-44.180872 0-79.419854-36.02266-79.419854-80.453533 0-26.95526 11.341903-50.750298 34.614489-65.3412L453.805271 294.416126c0-25.858315 20.840939-46.823744 46.544151-46.823744s46.544151 20.965429 46.544151 46.823744l0 188.770496C570.167178 497.776503 579.474376 521.59399 579.474376 548.526801z" fill="#838387" p-id="17295"></path></svg>