<?xml version="1.0" standalone="no"?><!DOCTYPE svg PUBLIC "-//W3C//DTD SVG 1.1//EN" "http://www.w3.org/Graphics/SVG/1.1/DTD/svg11.dtd"><svg t="1604775622293" class="icon" viewBox="0 0 1077 1024" version="1.1" xmlns="http://www.w3.org/2000/svg" p-id="24554" xmlns:xlink="http://www.w3.org/1999/xlink" width="210.3515625" height="200"><defs><style type="text/css"></style></defs><path d="M1041.964733 211.860211a35.786105 35.786105 0 0 1-25.114948-10.563369L873.112522 60.038737a33.738105 33.738105 0 0 1 0-49.421474 35.139368 35.139368 0 0 1 50.28379 0l143.737263 141.204211a33.738105 33.738105 0 0 1 0 49.475368 35.786105 35.786105 0 0 1-25.168842 10.563369m-1005.999158 0A35.786105 35.786105 0 0 1 10.796733 201.296842a33.738105 33.738105 0 0 1 0-49.475368L154.533996 10.617263a35.139368 35.139368 0 0 1 50.283789 0 33.738105 33.738105 0 0 1 0 49.421474l-143.737263 141.20421a35.786105 35.786105 0 0 1-25.114947 10.617264m754.526316 353.118315H538.965154a35.732211 35.732211 0 0 1-35.94779-35.301052V211.806316c0-19.402105 16.168421-35.301053 35.94779-35.301053 19.779368 0 35.947789 15.898947 35.947789 35.301053v282.462316h215.578948c19.725474 0 35.893895 15.898947 35.893894 35.354947 0 19.402105-16.168421 35.301053-35.893894 35.301053M538.965154 105.957053c-237.136842 0-431.157895 190.625684-431.157895 423.720421 0 233.040842 194.021053 423.720421 431.157895 423.720421s431.157895-190.679579 431.157894-423.720421c0-233.094737-194.021053-423.720421-431.157894-423.720421M538.965154 1024C262.323469 1024 35.965575 801.576421 35.965575 529.677474 35.965575 257.778526 262.323469 35.301053 538.965154 35.301053s502.999579 222.477474 502.999579 494.376421S815.606838 1024 538.965154 1024" fill="#F7A11F" p-id="24555"></path></svg>