<?xml version="1.0" standalone="no"?><!DOCTYPE svg PUBLIC "-//W3C//DTD SVG 1.1//EN" "http://www.w3.org/Graphics/SVG/1.1/DTD/svg11.dtd"><svg t="1604776838566" class="icon" viewBox="0 0 1024 1024" version="1.1" xmlns="http://www.w3.org/2000/svg" p-id="32069" xmlns:xlink="http://www.w3.org/1999/xlink" width="200" height="200"><defs><style type="text/css"></style></defs><path d="M426.496 128h-256c-25.6 0-42.496 16.896-42.496 42.496v256c0 25.6 16.896 42.496 42.496 42.496h256c25.6 0 42.496-16.896 42.496-42.496v-256c0.512-25.6-16.896-42.496-42.496-42.496z m0 426.496h-256c-25.6 0-42.496 16.896-42.496 42.496v256c0 25.6 16.896 42.496 42.496 42.496h256c25.6 0 42.496-16.896 42.496-42.496v-256c0.512-25.088-16.896-42.496-42.496-42.496z m425.472-424.96h-253.44c-24.064 0-41.984 17.92-41.984 41.984V424.96c0 24.064 17.92 41.984 41.984 41.984h253.44c24.064 0 41.984-17.92 41.984-41.984V172.032c0.512-24.064-17.92-42.496-41.984-42.496z m1.536 424.96h-256c-25.6 0-42.496 16.896-42.496 42.496v256c0 25.6 16.896 42.496 42.496 42.496h256c25.6 0 42.496-16.896 42.496-42.496v-256c0-25.088-16.896-42.496-42.496-42.496z" fill="#F7A11F" p-id="32070"></path></svg>