<?xml version="1.0" encoding="utf-8"?>
<svg version="1.1" xmlns:xlink="http://www.w3.org/1999/xlink" width="16px" height="16px" xmlns="http://www.w3.org/2000/svg">
  <g transform="matrix(1 0 0 1 -1556 -1420 )">
    <path d="M 15.8020833333333 0.197916666666666  C 15.9340277777778 0.329861111111109  16 0.486111111111109  16 0.666666666666666  L 16 15.3333333333333  C 16 15.5138888888889  15.9340277777778 15.6701388888889  15.8020833333333 15.8020833333333  C 15.6701388888889 15.9340277777778  15.5138888888889 16  15.3333333333333 16  L 10 16  C 9.81944444444444 16  9.66319444444444 15.9340277777778  9.53125 15.8020833333333  C 9.39930555555556 15.6701388888889  9.33333333333333 15.5138888888889  9.33333333333333 15.3333333333333  L 9.33333333333333 0.666666666666666  C 9.33333333333333 0.486111111111109  9.39930555555556 0.329861111111109  9.53125 0.197916666666666  C 9.66319444444444 0.0659722222222214  9.81944444444444 0  10 0  L 15.3333333333333 0  C 15.5138888888889 0  15.6701388888889 0.0659722222222214  15.8020833333333 0.197916666666666  Z M 6.46875 0.197916666666666  C 6.60069444444445 0.329861111111109  6.66666666666667 0.486111111111109  6.66666666666667 0.666666666666666  L 6.66666666666667 15.3333333333333  C 6.66666666666667 15.5138888888889  6.60069444444445 15.6701388888889  6.46875 15.8020833333333  C 6.33680555555556 15.9340277777778  6.18055555555556 16  6 16  L 0.666666666666667 16  C 0.486111111111111 16  0.329861111111111 15.9340277777778  0.197916666666667 15.8020833333333  C 0.0659722222222222 15.6701388888889  0 15.5138888888889  0 15.3333333333333  L 0 0.666666666666666  C 0 0.486111111111109  0.0659722222222222 0.329861111111109  0.197916666666667 0.197916666666666  C 0.329861111111111 0.0659722222222214  0.486111111111111 0  0.666666666666667 0  L 6 0  C 6.18055555555556 0  6.33680555555556 0.0659722222222214  6.46875 0.197916666666666  Z " fill-rule="nonzero" fill="#ffffff" stroke="none" transform="matrix(1 0 0 1 1556 1420 )" />
  </g>
</svg>