<?xml version="1.0" standalone="no"?><!DOCTYPE svg PUBLIC "-//W3C//DTD SVG 1.1//EN" "http://www.w3.org/Graphics/SVG/1.1/DTD/svg11.dtd"><svg t="1604776721236" class="icon" viewBox="0 0 1024 1024" version="1.1" xmlns="http://www.w3.org/2000/svg" p-id="29427" xmlns:xlink="http://www.w3.org/1999/xlink" width="200" height="200"><defs><style type="text/css"></style></defs><path d="M367.592291 269.467162c0 104.199978 82.291982 188.664959 183.791961 188.66496s183.792961-84.464982 183.79296-188.66496c0-104.167978-82.291982-188.632959-183.79296-188.632959S367.592291 165.300184 367.592291 269.498162zM246.451317 997.066006c-18.400996 0-36.832992-9.805998-48.779989-24.451995-12.907997-18.555996-16.569996-39.035992-11.977998-57.591988 37.732992-203.155956 196.018958-357.469923 384.713917-374.101919 4.592999-0.993 8.253998-1.986 11.946998-1.986h34.969992c66.094986 5.429999 113.478976 15.669997 142.11997 30.719994s45.70699 24.699995 51.168989 28.858993c110.435976 66.434986 186.80196 181.712961 211.656954 316.477932 4.654999 19.548996 0 40.059991-13.776997 57.622988a66.962986 66.962986 0 0 1-50.641989 24.419995h-711.399847zM76.341354 1024c-22.434995 0-44.86999-11.480998-59.453988-28.733994-15.701997-21.813995-20.169996-45.95599-14.584996-67.800985C48.32136 688.469072 241.237318 506.880111 471.171269 487.362115c5.616999-1.148 10.084998-2.296 14.583997-2.295999h42.63599l-5.615998 57.467987h-22.434995c-8.999998 0-13.466997 0-20.200996 2.296h-3.350999c-207.499955 14.894997-381.362918 178.113962-421.76391 395.263915-1.117 5.771999-1.117 13.808997 4.467999 19.549996l1.148 2.294999c3.382999 4.592999 8.967998 6.889999 15.701997 6.889999h868.164813c6.733999 0 12.349997-2.297 15.701997-6.889999 5.615999-6.887999 6.763999-13.776997 5.615998-21.844995-25.785994-142.459969-109.939976-263.136943-228.81695-332.085929-10.084998-6.888999-21.286995-12.629997-31.402994-18.369996-3.350999-2.296-6.733999-3.474999-10.115997-5.771998l-15.700997-6.856999 22.465995-51.696989 15.700997 6.857999c11.170998 4.591999 22.403995 11.480998 32.519993 16.104996l13.466997 6.887999c134.577971 78.134983 227.669951 213.736954 257.954944 372.30192 5.615999 22.961995 0 47.10399-16.818996 67.799985A82.788982 82.788982 0 0 1 943.391167 1024H76.342354z m448.789903-485.065896c-143.824969 0-262.545944-121.823974-262.545943-269.435942C262.586314 121.856194 381.307288 0.00022 525.101257 0.00022c143.886969 0 262.609944 121.855974 262.609944 269.466942 0 147.642968-119.901974 269.466942-262.579944 269.466942zM512.00826 53.900208c-122.972974-0.31-222.889952 101.747978-223.169952 227.947951v1.149C288.837308 409.290132 388.911286 512.00011 512.00726 512.00011s223.169952-102.709978 223.169952-229.033951S635.073234 53.930208 512.00726 53.930208V53.900208z m13.125997 485.033896c-144.849969 0.187-262.391944-120.179974-262.546943-268.845942v-0.62C262.399314 120.831194 379.694288 0.15422 524.511257 0.00022h0.62c144.819969-0.186 262.392944 120.179974 262.579944 268.815942v0.651c0 149.099968-118.442975 269.466942-262.579944 269.466942z m-13.125997-511.99989c-137.46397 0-249.420946 114.936975-249.420946 255.999945 0 141.06397 111.956976 255.999945 249.420946 255.999945s249.421946-114.904975 249.421946-255.999945c0-141.06297-111.957976-255.999945-249.421946-255.999945z m0 485.065896c-123.189974 0.062-223.107952-102.368978-223.169952-228.785951v-0.28C288.744308 156.518186 388.569287 53.963208 511.75926 53.900208h0.248c123.189974-0.093 223.107952 102.337978 223.169952 228.754951v0.31C735.177212 409.570132 634.267234 512.00011 512.00726 512.00011z m13.125997-458.099902c-115.587975 0-210.074955 96.938979-210.074955 215.566954s94.48698 215.598954 210.074955 215.598954c115.618975 0 210.074955-96.969979 210.074955-215.598954 0-118.627975-94.45598-215.566954-210.074955-215.566954z" fill="#F7A11F" p-id="29428"></path></svg>