<?xml version="1.0" standalone="no"?><!DOCTYPE svg PUBLIC "-//W3C//DTD SVG 1.1//EN" "http://www.w3.org/Graphics/SVG/1.1/DTD/svg11.dtd"><svg t="1605340085575" class="icon" viewBox="0 0 1024 1024" version="1.1" xmlns="http://www.w3.org/2000/svg" p-id="6158" xmlns:xlink="http://www.w3.org/1999/xlink" width="200" height="200"><defs><style type="text/css"></style></defs><path d="M934.249412 512c0-44.272941 26.864941-83.124706 68.487529-99.147294L1024 404.781176l-5.601882-22.106352a519.589647 519.589647 0 0 0-56.801883-137.155765l-11.625411-19.576471-20.841412 9.216a106.797176 106.797176 0 0 1-43.610353 9.276236 104.990118 104.990118 0 0 1-74.872471-31.021177 105.532235 105.532235 0 0 1-21.684706-118.482823l9.336471-20.841412-19.696941-11.685647a522.360471 522.360471 0 0 0-137.216-56.741647L619.339294 0l-8.192 21.263059A105.833412 105.833412 0 0 1 512 89.750588c-44.212706 0-83.124706-26.864941-99.087059-68.487529L404.720941 0l-22.106353 5.601882c-48.188235 12.288-94.388706 31.382588-137.155764 56.801883l-19.576471 11.625411 9.276235 20.841412c18.070588 40.658824 9.577412 87.160471-21.684706 118.482824a106.736941 106.736941 0 0 1-118.482823 21.805176L74.089412 225.882353l-11.625412 19.516235a516.577882 516.577882 0 0 0-56.862118 137.216L0 404.660706l21.202824 8.192c41.562353 16.082824 68.487529 54.994824 68.487529 99.147294 0 44.272941-26.864941 83.124706-68.487529 99.147294L0 619.218824l5.601882 22.106352c12.288 48.188235 31.382588 94.388706 56.801883 137.155765l11.625411 19.576471 20.841412-9.276236c13.733647-6.083765 28.611765-9.276235 43.610353-9.216 28.310588 0 54.814118 11.023059 74.872471 31.021177 31.322353 31.322353 39.755294 77.824 21.684706 118.482823l-9.336471 20.841412 19.696941 11.625412c42.767059 25.359059 88.967529 44.513882 137.216 56.741647l22.046118 5.662118 8.192-21.263059A105.833412 105.833412 0 0 1 512 934.249412c44.272941 0 83.124706 26.864941 99.147294 68.487529l8.131765 21.263059 22.106353-5.601882c48.188235-12.288 94.388706-31.382588 137.155764-56.801883l19.636706-11.625411-9.276235-20.841412c-18.130824-40.658824-9.637647-87.160471 21.684706-118.482824a106.857412 106.857412 0 0 1 118.482823-21.805176l20.781177 9.276235 11.625412-19.576471c25.479529-42.767059 44.574118-88.907294 56.862117-137.155764l5.662118-22.106353-21.323294-8.131765A105.592471 105.592471 0 0 1 934.249412 512z m-6.505412 222.087529a158.057412 158.057412 0 0 0-153.479529 40.357647 156.250353 156.250353 0 0 0-40.237177 153.419295c-27.105882 14.456471-55.597176 26.262588-84.992 35.177411a156.250353 156.250353 0 0 0-137.035294-80.112941c-57.645176 0-109.206588 30.840471-136.975059 80.112941a470.256941 470.256941 0 0 1-85.232941-35.237647 158.479059 158.479059 0 0 0-40.176941-153.359059 157.756235 157.756235 0 0 0-153.47953-40.357647 468.630588 468.630588 0 0 1-35.177411-85.052235A156.250353 156.250353 0 0 0 141.071059 512c0-57.645176-30.780235-109.206588-80.112941-136.975059 8.914824-29.515294 20.720941-58.006588 35.297882-85.11247a158.057412 158.057412 0 0 0 153.479529-40.357647 156.250353 156.250353 0 0 0 40.237177-153.419295c27.105882-14.456471 55.597176-26.262588 84.992-35.177411A156.250353 156.250353 0 0 0 512 141.071059c57.645176 0 109.206588-30.780235 136.975059-80.112941 29.515294 8.914824 58.006588 20.720941 85.172706 35.237647-14.817882 54.031059 0.120471 113.242353 40.237176 153.419294a157.816471 157.816471 0 0 0 153.47953 40.357647c14.456471 27.105882 26.262588 55.597176 35.177411 85.052235a156.190118 156.190118 0 0 0-80.112941 136.975059c0 57.705412 30.780235 109.327059 80.112941 137.035294a465.92 465.92 0 0 1-35.297882 85.052235z" fill="#F7A11F" p-id="6159"></path><path d="M512 361.411765A150.768941 150.768941 0 0 0 361.411765 512C361.411765 595.064471 428.935529 662.588235 512 662.588235S662.588235 595.064471 662.588235 512 595.064471 361.411765 512 361.411765z m0 252.265411A101.797647 101.797647 0 0 1 410.322824 512c0-56.018824 45.598118-101.677176 101.677176-101.677176 56.018824 0 101.677176 45.598118 101.677176 101.677176A101.797647 101.797647 0 0 1 512 613.677176z" fill="#F7A11F" p-id="6160"></path></svg>