<?xml version="1.0" standalone="no"?><!DOCTYPE svg PUBLIC "-//W3C//DTD SVG 1.1//EN" "http://www.w3.org/Graphics/SVG/1.1/DTD/svg11.dtd"><svg t="1605339895810" class="icon" viewBox="0 0 1024 1024" version="1.1" xmlns="http://www.w3.org/2000/svg" p-id="2927" xmlns:xlink="http://www.w3.org/1999/xlink" width="200" height="200"><defs><style type="text/css"></style></defs><path d="M431.5 592.8c-10.3 9.9-26.7 9.5-36.6-0.9s-9.5-26.7 0.9-36.6c0.3-0.2 0.5-0.5 0.8-0.7l94.3-86.2c10.5-9.6 26.9-8.9 36.6 1.6l0.3 0.3 42.6 48.3 83.5-83.9c10.3-9.9 26.7-9.5 36.6 0.9 9.5 10 9.5 25.6 0.1 35.6l-103 103.5c-10.1 10.1-26.5 10.2-36.6 0.1-0.4-0.4-0.8-0.8-1.1-1.2l-43.5-49.3-74.9 68.5z m241.8 75.8c14.3 0 25.9 11.6 25.9 25.9s-11.6 25.9-25.9 25.9H340.1c-14.3 0-25.9-11.6-25.9-25.9V453c0-14.3 11.6-25.9 25.9-25.9S366 438.7 366 453v215.6h307.3zM276 332.2c-47.6 0-86.2 38.6-86.2 86.2V729c0 47.6 38.6 86.2 86.2 86.2h483c47.6 0 86.2-38.6 86.2-86.2V418.5c0-47.6-38.6-86.2-86.2-86.2H276z m271.7-51.7H759c76.2 0 138 61.8 138 138V729c0 76.2-61.8 138-138 138H276c-76.2 0-138-61.8-138-138V418.5c0-6.5 0.5-13 1.4-19.4-0.9 0-1.4-0.7-1.4-2.2V315c0-76.2 61.8-138 138-138h138c62.9 0 117.9 42.6 133.7 103.5z m-54.6 0c-13.7-31.4-44.8-51.8-79.1-51.8H276c-46 0-83.8 36-86.1 81.9 24.4-19.6 54.8-30.2 86.1-30.2h217.1z" p-id="2928" fill="#F7A11F"></path></svg>