<?xml version="1.0" encoding="utf-8"?>
<svg version="1.1" xmlns:xlink="http://www.w3.org/1999/xlink" width="13px" height="13px" xmlns="http://www.w3.org/2000/svg">
  <g transform="matrix(1 0 0 1 -1035 -468 )">
    <path d="M 8.03190104166667 4.96809895833333  C 8.455078125 5.39127604166667  8.66666666666667 5.90190972222222  8.66666666666667 6.5  C 8.66666666666667 7.09809027777778  8.455078125 7.60872395833333  8.03190104166667 8.03190104166667  C 7.60872395833333 8.455078125  7.09809027777778 8.66666666666667  6.5 8.66666666666667  C 5.90190972222222 8.66666666666667  5.39127604166667 8.455078125  4.96809895833333 8.03190104166667  C 4.544921875 7.60872395833333  4.33333333333333 7.09809027777778  4.33333333333333 6.5  C 4.33333333333333 5.90190972222222  4.544921875 5.39127604166667  4.96809895833333 4.96809895833333  C 5.39127604166667 4.544921875  5.90190972222222 4.33333333333333  6.5 4.33333333333333  C 7.09809027777778 4.33333333333333  7.60872395833333 4.544921875  8.03190104166667 4.96809895833333  Z M 8.810546875 2.513671875  C 8.10525173611111 2.10177951388889  7.33506944444444 1.89583333333333  6.5 1.89583333333333  C 5.66493055555556 1.89583333333333  4.89474826388889 2.10177951388889  4.189453125 2.513671875  C 3.48415798611111 2.92556423611111  2.92556423611111 3.48415798611111  2.513671875 4.189453125  C 2.10177951388889 4.89474826388889  1.89583333333333 5.66493055555556  1.89583333333333 6.5  C 1.89583333333333 7.33506944444444  2.10177951388889 8.10525173611111  2.513671875 8.810546875  C 2.92556423611111 9.51584201388889  3.48415798611111 10.0744357638889  4.189453125 10.486328125  C 4.89474826388889 10.8982204861111  5.66493055555556 11.1041666666667  6.5 11.1041666666667  C 7.33506944444444 11.1041666666667  8.10525173611111 10.8982204861111  8.810546875 10.486328125  C 9.51584201388889 10.0744357638889  10.0744357638889 9.51584201388889  10.486328125 8.810546875  C 10.8982204861111 8.10525173611111  11.1041666666667 7.33506944444444  11.1041666666667 6.5  C 11.1041666666667 5.66493055555556  10.8982204861111 4.89474826388889  10.486328125 4.189453125  C 10.0744357638889 3.48415798611111  9.51584201388889 2.92556423611111  8.810546875 2.513671875  Z M 12.1282552083333 3.2373046875  C 12.7094184027778 4.23318142361111  13 5.32074652777778  13 6.5  C 13 7.67925347222222  12.7094184027778 8.76681857638889  12.1282552083333 9.7626953125  C 11.5470920138889 10.7585720486111  10.7585720486111 11.5470920138889  9.7626953125 12.1282552083333  C 8.76681857638889 12.7094184027778  7.67925347222222 13  6.5 13  C 5.32074652777778 13  4.23318142361111 12.7094184027778  3.2373046875 12.1282552083333  C 2.24142795138889 11.5470920138889  1.45290798611111 10.7585720486111  0.871744791666667 9.7626953125  C 0.290581597222222 8.76681857638889  0 7.67925347222222  0 6.5  C 0 5.32074652777778  0.290581597222222 4.23318142361111  0.871744791666667 3.2373046875  C 1.45290798611111 2.24142795138889  2.24142795138889 1.45290798611111  3.2373046875 0.871744791666666  C 4.23318142361111 0.290581597222221  5.32074652777778 0  6.5 0  C 7.67925347222222 0  8.76681857638889 0.290581597222221  9.7626953125 0.871744791666666  C 10.7585720486111 1.45290798611111  11.5470920138889 2.24142795138889  12.1282552083333 3.2373046875  Z " fill-rule="nonzero" fill="#f7a11f" stroke="none" transform="matrix(1 0 0 1 1035 468 )" />
  </g>
</svg>