<?xml version="1.0" encoding="utf-8"?>
<svg version="1.1" xmlns:xlink="http://www.w3.org/1999/xlink" width="14px" height="23px" xmlns="http://www.w3.org/2000/svg">
  <g transform="matrix(1 0 0 1 -1273 -161 )">
    <path d="M 13.7594501718213 1.38276553106212  C 13.9198167239404 1.53640614562458  14 1.71309285237141  14 1.91282565130261  C 14 2.1125584502338  13.9198167239404 2.28924515698063  13.7594501718213 2.44288577154309  L 4.30584192439863 11.5  L 13.7594501718213 20.5571142284569  C 13.9198167239404 20.7107548430194  14 20.8874415497662  14 21.0871743486974  C 14 21.2869071476286  13.9198167239404 21.4635938543754  13.7594501718213 21.6172344689379  L 12.5567010309278 22.7695390781563  C 12.3963344788087 22.9231796927188  12.2119129438717 23  12.0034364261168 23  C 11.794959908362 23  11.610538373425 22.9231796927188  11.4501718213058 22.7695390781563  L 0.240549828178694 12.0300601202405  C 0.0801832760595648 11.876419505678  0 11.6997327989312  0 11.5  C 0 11.3002672010688  0.0801832760595648 11.123580494322  0.240549828178694 10.9699398797595  L 11.4501718213058 0.230460921843688  C 11.610538373425 0.0768203072812284  11.794959908362 0  12.0034364261168 0  C 12.2119129438717 0  12.3963344788087 0.0768203072812284  12.5567010309278 0.230460921843688  L 13.7594501718213 1.38276553106212  Z " fill-rule="nonzero" fill="#827e7d" stroke="none" transform="matrix(1 0 0 1 1273 161 )" />
  </g>
</svg>