<?xml version="1.0" standalone="no"?><!DOCTYPE svg PUBLIC "-//W3C//DTD SVG 1.1//EN" "http://www.w3.org/Graphics/SVG/1.1/DTD/svg11.dtd"><svg t="1604778849268" class="icon" viewBox="0 0 1024 1024" version="1.1" xmlns="http://www.w3.org/2000/svg" p-id="40834" xmlns:xlink="http://www.w3.org/1999/xlink" width="200" height="200"><defs><style type="text/css"></style></defs><path d="M192 512c0 88 72 160 160 160s160-72 160-160-72-160-160-160-160 72-160 160z" p-id="40835" fill="#827E7D"></path><path d="M672 288c123.2 0 224 100.8 224 224s-100.8 224-224 224H352c-123.2 0-224-100.8-224-224s100.8-224 224-224h320m0-64H352c-158.4 0-288 129.6-288 288s129.6 288 288 288h320c158.4 0 288-129.6 288-288s-129.6-288-288-288z" p-id="40836" fill="#827E7D"></path></svg>