<?xml version="1.0" standalone="no"?><!DOCTYPE svg PUBLIC "-//W3C//DTD SVG 1.1//EN" "http://www.w3.org/Graphics/SVG/1.1/DTD/svg11.dtd"><svg t="1604752000796" class="icon" viewBox="0 0 1088 1024" version="1.1" xmlns="http://www.w3.org/2000/svg" p-id="6191" xmlns:xlink="http://www.w3.org/1999/xlink" width="212.5" height="200"><defs><style type="text/css"></style></defs><path d="M489.107961 1024H302.621592V558.342421c0-51.367503 42.434024-92.684842 92.684842-92.684842s92.684842 42.434024 92.684842 92.684842l1.116685 465.657579z m-302.621592 0H0v-279.17121c0-51.367503 42.434024-92.684842 92.684842-92.684842s92.684842 42.434024 92.684842 92.684842c1.116685 0 1.116685 279.17121 1.116685 279.17121z m599.65976 0H600.776445V371.856052c0-51.367503 42.434024-92.684842 92.684842-92.684842s92.684842 42.434024 92.684842 92.684842v652.143948z m302.621592 0H902.281352V92.684842c0-51.367503 42.434024-92.684842 92.684842-92.684842s92.684842 42.434024 92.684842 92.684842l1.116685 931.315158z" p-id="6192" fill="#ffffff"></path></svg>