<?xml version="1.0" standalone="no"?><!DOCTYPE svg PUBLIC "-//W3C//DTD SVG 1.1//EN" "http://www.w3.org/Graphics/SVG/1.1/DTD/svg11.dtd"><svg t="1604752240509" class="icon" viewBox="0 0 1032 1024" version="1.1" xmlns="http://www.w3.org/2000/svg" p-id="7060" xmlns:xlink="http://www.w3.org/1999/xlink" width="201.5625" height="200"><defs><style type="text/css"></style></defs><path d="M510.508117 214.689052a373.539059 373.539059 0 1 0 373.396975 373.396975 373.823227 373.823227 0 0 0-373.396975-373.396975z m0 661.685584a288.288608 288.288608 0 1 1 288.146524-288.288609 288.572776 288.572776 0 0 1-288.146524 288.288609z" p-id="7061" fill="#ffffff"></path><path d="M553.133343 402.09796h-85.250451v195.365617l65.927015 142.93659 77.435826-35.663106-58.11239-126.028583V402.09796zM75.5319 320.115443l194.655196-207.627473 62.175995 58.2971L137.736312 378.412543zM688.738393 170.742445l62.190204-58.311309L945.569585 320.05861l-62.190204 58.311308z" p-id="7062" fill="#ffffff"></path></svg>