<?xml version="1.0" standalone="no"?><!DOCTYPE svg PUBLIC "-//W3C//DTD SVG 1.1//EN" "http://www.w3.org/Graphics/SVG/1.1/DTD/svg11.dtd"><svg t="1604753237669" class="icon" viewBox="0 0 1024 1024" version="1.1" xmlns="http://www.w3.org/2000/svg" p-id="13253" xmlns:xlink="http://www.w3.org/1999/xlink" width="200" height="200"><defs><style type="text/css"></style></defs><path d="M511.137865 62.778812c-247.957325 0-448.570365 200.809515-448.570366 448.768887 0 247.957325 200.614064 448.793446 448.570366 448.793446 247.934812 0 448.990944-200.836121 448.990944-448.793446 0-247.958348-201.056132-448.768887-448.990944-448.768887zM821.909817 332.045465H689.507298c-14.58109-56.114019-35.002189-109.962437-61.927421-159.770843 82.570577 28.278043 151.247726 85.501326 194.32994 159.770843zM511.358899 154.094564c37.467333 53.849442 66.63463 113.75788 85.724407 177.950901H425.635515c19.066241-64.194044 48.233538-124.102483 85.723384-177.950901zM163.98226 601.311095c-7.390317-28.722158-11.652388-58.801221-11.652388-89.763396 0-30.964222 4.26207-61.017702 11.652388-89.739861h151.46876c-3.595898 29.388331-6.058996 59.219753-6.058996 89.739861 0 30.521131 2.463098 60.376089 6.2831 89.763396H163.98226z m36.580127 89.76442h132.402519c14.58416 56.089459 35.005258 109.936855 61.928444 159.992901-82.5716-28.28009-151.247726-85.72543-194.330963-159.992901zM332.964906 332.045465H200.562387c43.083238-74.269517 111.759363-131.713834 194.330963-159.992901-26.923186 50.030463-47.343261 103.878882-61.928444 159.992901z m178.393993 536.954345c-37.244252-53.847395-66.434062-113.755834-85.723384-177.924295h171.447791c-19.312858 64.168462-48.479131 124.0769-85.724407 177.924295z m105.010658-267.688715H406.324704c-4.264117-29.387307-7.169283-59.243289-7.169283-89.763396 0-30.520107 2.90619-60.35153 7.169283-89.739861h210.044853c4.26207 29.388331 7.17133 59.219753 7.17133 89.739861 0 30.521131-2.90926 60.377112-7.17133 89.763396z m11.431354 249.53424c26.924209-50.055023 47.345308-103.680361 61.953004-159.76982h132.378983c-43.305295 74.267471-111.982444 131.490753-194.331987 159.76982z m79.220273-249.53424c3.596921-29.387307 6.2831-59.243289 6.2831-89.763396 0-30.520107-2.462075-60.35153-6.2831-89.739861h151.46876c7.391341 28.722158 11.900028 58.775638 11.900028 89.739861 0 30.962176-4.261047 61.041238-11.900028 89.763396H707.021184z" p-id="13254" fill="#838387"></path></svg>