<?xml version="1.0" standalone="no"?><!DOCTYPE svg PUBLIC "-//W3C//DTD SVG 1.1//EN" "http://www.w3.org/Graphics/SVG/1.1/DTD/svg11.dtd"><svg t="1604753604210" class="icon" viewBox="0 0 1024 1024" version="1.1" xmlns="http://www.w3.org/2000/svg" p-id="16367" xmlns:xlink="http://www.w3.org/1999/xlink" width="200" height="200"><defs><style type="text/css"></style></defs><path d="M930.908858 1024H93.090676a46.545455 46.545455 0 0 1-46.545454-46.545455 547.84 547.84 0 0 1 75.403636-279.552A481.652364 481.652364 0 0 1 317.71904 512 481.28 481.28 0 0 1 121.948858 326.097455 547.793455 547.793455 0 0 1 46.545222 46.545455a46.545455 46.545455 0 0 1 46.545454-46.545455h837.818182a46.545455 46.545455 0 0 1 46.266182 41.146182L977.454313 46.545455a547.84 547.84 0 0 1-75.403637 279.552A481.652364 481.652364 0 0 1 706.280495 512a480.907636 480.907636 0 0 1 192.046545 179.898182 546.257455 546.257455 0 0 1 79.127273 270.149818V977.454545l-0.279273 5.445819a46.266182 46.266182 0 0 1-40.820364 40.820363z m-418.909091-465.454545a349.090909 349.090909 0 0 0-240.779636 99.467636 433.664 433.664 0 0 0-126.184727 247.947636l-1.722182 12.381091-1.442909 12.567273h740.072727a437.201455 437.201455 0 0 0-121.297455-265.029818A349.556364 349.556364 0 0 0 511.999767 558.545455zM141.870313 93.090909l1.442909 12.567273A435.293091 435.293091 0 0 0 267.170676 362.077091 349.090909 349.090909 0 0 0 511.999767 465.454545a349.556364 349.556364 0 0 0 248.785455-107.333818A437.201455 437.201455 0 0 0 882.082676 93.090909H141.870313zM744.72704 837.818182H279.272495c51.432727-123.531636 129.768727-186.181818 232.727272-186.181818 99.281455 0 175.709091 58.228364 227.095273 173.102545L744.72704 837.818182z" p-id="16368" fill="#838387"></path></svg>