<?xml version="1.0" standalone="no"?><!DOCTYPE svg PUBLIC "-//W3C//DTD SVG 1.1//EN" "http://www.w3.org/Graphics/SVG/1.1/DTD/svg11.dtd"><svg t="1604753312779" class="icon" viewBox="0 0 1024 1024" version="1.1" xmlns="http://www.w3.org/2000/svg" p-id="14178" xmlns:xlink="http://www.w3.org/1999/xlink" width="200" height="200"><defs><style type="text/css"></style></defs><path d="M482.924007 575.04011c-20.587995 0-37.202991-16.614996-37.202991-37.202991s16.614996-37.202991 37.202991-37.202991h206.23995c20.587995 0 37.202991 16.614996 37.202991 37.202991s-16.614996 37.202991-37.202991 37.202991h-206.23995zM447.890016 357.964163c0-20.587995 16.613996-37.202991 37.201991-37.202991 20.587995 0 37.202991 16.614996 37.20299 37.202991v179.149956c0 20.587995-16.614996 37.202991-37.20299 37.202991-20.587995 0-37.201991-17.336996-37.201991-37.924991V357.964163zM485.090007 52.757237c134.001967 0 255.000938 54.539987 342.769916 141.948965 87.769979 87.768979 141.948965 209.129949 141.948965 342.769917s-54.539987 254.999938-141.947965 342.769916c-87.769979 87.769979-209.129949 141.947965-342.769916 141.947965-134.002967 0-255.362938-54.539987-343.131917-141.947965C54.552112 792.838056 0.012125 671.478086 0.012125 537.836119c0-133.999967 54.539987-255.360938 141.947965-342.769917 88.129978-88.129978 209.489949-142.308965 343.130917-142.308965zM775.489936 247.44019c-74.405982-74.043982-176.983957-119.914971-290.397929-119.914971S269.100059 173.395208 195.055077 247.80119C120.650096 321.845171 74.778107 424.784146 74.778107 538.198119S120.650096 754.190066 194.694077 828.596048C269.099059 903.00003 371.677034 948.872018 485.090007 948.872018s215.991947-45.870989 290.397929-119.91497c74.043982-74.404982 119.914971-176.983957 119.91497-290.397929 0-114.135972-45.870989-216.713947-119.91497-291.119929zM163.630085 8.331248c15.892996-13.002997 39.36999-10.474997 52.372987 5.417999 13.002997 15.891996 10.474997 39.72999-5.417998 52.372987L65.750109 183.870205c-15.892996 13.002997-39.73099 10.473997-52.372987-5.417999C0.373125 162.56021 3.263124 138.360216 19.15512 125.718219L163.630085 8.331248z m642.919843 0c-15.891996-13.002997-39.72999-10.474997-52.371987 5.417999-13.002997 15.891996-10.474997 39.72999 5.416999 52.372987l144.837964 117.386971c15.891996 13.001997 39.73099 10.473997 52.372987-5.417998 13.002997-15.892996 10.112998-40.09199-5.779998-52.733988L806.551928 8.330248z" p-id="14179" fill="#838387"></path></svg>