<?xml version="1.0" standalone="no"?><!DOCTYPE svg PUBLIC "-//W3C//DTD SVG 1.1//EN" "http://www.w3.org/Graphics/SVG/1.1/DTD/svg11.dtd"><svg t="1605036906969" class="icon" viewBox="0 0 1024 1024" version="1.1" xmlns="http://www.w3.org/2000/svg" p-id="3075" xmlns:xlink="http://www.w3.org/1999/xlink" width="200" height="200"><defs><style type="text/css"></style></defs><path d="M546.4 521.6V374.2h-69v147.4C456.9 533.5 443 555.5 443 581s14 47.4 34.4 59.4v44h69v-44c20.6-12 34.4-33.9 34.4-59.4 0.2-25.5-13.8-47.5-34.4-59.4z" p-id="3076" fill="#F7A11F"></path><path d="M813.8 352.3l75.6-75.6-73.1-73.1-75.6 75.6c-55-41.8-121.5-69-194.3-75.6V133h34.4V64H443v69h34.4v70.6C284.3 221 133 383.2 133 581c0 209.3 169.6 379 379 379 209.3 0 379-169.7 379-379 0-86.1-29-165.1-77.2-228.7zM512 891c-171 0-310.1-139.1-310.1-310S341 270.9 512 270.9 822.1 410 822.1 581 683 891 512 891z" p-id="3077" fill="#F7A11F"></path></svg>