<?xml version="1.0" encoding="utf-8"?>
<svg version="1.1" xmlns:xlink="http://www.w3.org/1999/xlink" width="44px" height="44px" xmlns="http://www.w3.org/2000/svg">
  <g transform="matrix(1 0 0 1 -792 -587 )">
    <path d="M 10.95703125 2.95052083333333  C 14.3276909722222 0.983506944444441  18.0086805555556 0  22 0  C 25.9913194444444 0  29.6723090277778 0.983506944444441  33.04296875 2.95052083333333  C 36.4136284722222 4.91753472222222  39.0824652777778 7.58637152777778  41.0494791666667 10.95703125  C 43.0164930555556 14.3276909722222  44 18.0086805555556  44 22  C 44 25.9913194444444  43.0164930555556 29.6723090277778  41.0494791666667 33.04296875  C 39.0824652777778 36.4136284722222  36.4136284722222 39.0824652777778  33.04296875 41.0494791666667  C 29.6723090277778 43.0164930555556  25.9913194444444 44  22 44  C 18.0086805555556 44  14.3276909722222 43.0164930555556  10.95703125 41.0494791666667  C 7.58637152777778 39.0824652777778  4.91753472222222 36.4136284722222  2.95052083333333 33.04296875  C 0.983506944444444 29.6723090277778  0 25.9913194444444  0 22  C 0 18.0086805555556  0.983506944444444 14.3276909722222  2.95052083333333 10.95703125  C 4.91753472222222 7.58637152777778  7.58637152777778 4.91753472222222  10.95703125 2.95052083333333  Z M 14.1796875 35.4921875  C 16.5668402777778 36.8862847222222  19.1736111111111 37.5833333333333  22 37.5833333333333  C 24.8263888888889 37.5833333333333  27.4331597222222 36.8862847222222  29.8203125 35.4921875  C 32.2074652777778 34.0980902777778  34.0980902777778 32.2074652777778  35.4921875 29.8203125  C 36.8862847222222 27.4331597222222  37.5833333333333 24.8263888888889  37.5833333333333 22  C 37.5833333333333 19.1736111111111  36.8862847222222 16.5668402777778  35.4921875 14.1796875  C 34.0980902777778 11.7925347222222  32.2074652777778 9.90190972222222  29.8203125 8.5078125  C 27.4331597222222 7.11371527777778  24.8263888888889 6.41666666666667  22 6.41666666666667  C 19.1736111111111 6.41666666666667  16.5668402777778 7.11371527777778  14.1796875 8.5078125  C 11.7925347222222 9.90190972222222  9.90190972222222 11.7925347222222  8.5078125 14.1796875  C 7.11371527777778 16.5668402777778  6.41666666666667 19.1736111111111  6.41666666666667 22  C 6.41666666666667 24.8263888888889  7.11371527777778 27.4331597222222  8.5078125 29.8203125  C 9.90190972222222 32.2074652777778  11.7925347222222 34.0980902777778  14.1796875 35.4921875  Z M 30.25 31.1666666666667  L 24.75 31.1666666666667  C 24.4826388888889 31.1666666666667  24.2630208333333 31.0807291666667  24.0911458333333 30.9088541666667  C 23.9192708333333 30.7369791666667  23.8333333333333 30.5173611111111  23 30.25  L 23 13.75  C 23.8333333333333 13.4826388888889  23.9192708333333 13.2630208333333  24.0911458333333 13.0911458333333  C 24.2630208333333 12.9192708333333  24.4826388888889 12.8333333333333  24.75 12.8333333333333  L 30.25 12.8333333333333  C 30.5173611111111 12.8333333333333  30.7369791666667 12.9192708333333  30.9088541666667 13.0911458333333  C 31.0807291666667 13.2630208333333  31.1666666666667 13.4826388888889  31 13.75  L 31 30.25  C 31.1666666666667 30.5173611111111  31.0807291666667 30.7369791666667  30.9088541666667 30.9088541666667  C 30.7369791666667 31.0807291666667  30.5173611111111 31.1666666666667  30.25 31.1666666666667  Z M 19.25 31.1666666666667  L 13.75 31.1666666666667  C 13.4826388888889 31.1666666666667  13.2630208333333 31.0807291666667  13.0911458333333 30.9088541666667  C 12.9192708333333 30.7369791666667  12.8333333333333 30.5173611111111  13 30.25  L 13 13.75  C 12.8333333333333 13.4826388888889  12.9192708333333 13.2630208333333  13.0911458333333 13.0911458333333  C 13.2630208333333 12.9192708333333  13.4826388888889 12.8333333333333  13.75 12.8333333333333  L 19.25 12.8333333333333  C 19.5173611111111 12.8333333333333  19.7369791666667 12.9192708333333  19.9088541666667 13.0911458333333  C 20.0807291666667 13.2630208333333  20.1666666666667 13.4826388888889  21 13.75  L 21 30.25  C 20.1666666666667 30.5173611111111  20.0807291666667 30.7369791666667  19.9088541666667 30.9088541666667  C 19.7369791666667 31.0807291666667  19.5173611111111 31.1666666666667  19.25 31.1666666666667  Z " fill-rule="nonzero" fill="#ffffff" stroke="none" transform="matrix(1 0 0 1 792 587 )" />
  </g>
</svg>